HIERARCHY
ROOT joint_Root
{
	OFFSET 0.0 0.0 0.0
	CHANNELS 6 Xposition Yposition Zposition Zrotation Xrotation Yrotation 
	JOINT Hips
	{
		OFFSET -0.726466 93.3139 -2.00062
		CHANNELS 6 Xposition Yposition Zposition Zrotation Xrotation Yrotation 
		JOINT Spine
		{
			OFFSET 15.7357 0.0 0.0
			CHANNELS 6 Xposition Yposition Zposition Zrotation Xrotation Yrotation 
			JOINT Chest
			{
				OFFSET 8.98455 -0.406207 0.0
				CHANNELS 6 Xposition Yposition Zposition Zrotation Xrotation Yrotation 
				JOINT Neck
				{
					OFFSET 16.3773 0.0 0.0
					CHANNELS 6 Xposition Yposition Zposition Zrotation Xrotation Yrotation 
					JOINT Head
					{
						OFFSET 6.45672 0.0 0.0
						CHANNELS 6 Xposition Yposition Zposition Zrotation Xrotation Yrotation 
						End Site
						{
							OFFSET 0.0 0.0 0.0
						}
					}
				}
				JOINT Shoulder_L
				{
					OFFSET 12.9942 -0.242716 4.98039
					CHANNELS 6 Xposition Yposition Zposition Zrotation Xrotation Yrotation 
					JOINT UpperArm_L
					{
						OFFSET 5.34809 0.0 0.0
						CHANNELS 6 Xposition Yposition Zposition Zrotation Xrotation Yrotation 
						JOINT LowerArm_L
						{
							OFFSET 24.3286 1.87007e-05 0.0
							CHANNELS 6 Xposition Yposition Zposition Zrotation Xrotation Yrotation 
							JOINT Hand_L
							{
								OFFSET 22.2916 0.0 0.0
								CHANNELS 6 Xposition Yposition Zposition Zrotation Xrotation Yrotation 
								End Site
								{
									OFFSET 0.0 0.0 0.0
								}
							}
						}
					}
				}
				JOINT Shoulder_R
				{
					OFFSET 12.9945 -0.242716 -4.98039
					CHANNELS 6 Xposition Yposition Zposition Zrotation Xrotation Yrotation 
					JOINT UpperArm_R
					{
						OFFSET -5.34813 0.0 0.0
						CHANNELS 6 Xposition Yposition Zposition Zrotation Xrotation Yrotation 
						JOINT LowerArm_R
						{
							OFFSET -24.3289 0.000322201 0.0
							CHANNELS 6 Xposition Yposition Zposition Zrotation Xrotation Yrotation 
							JOINT Hand_R
							{
								OFFSET -22.2915 -0.000108084 0.0
								CHANNELS 6 Xposition Yposition Zposition Zrotation Xrotation Yrotation 
								End Site
								{
									OFFSET 0.0 0.0 0.0
								}
							}
						}
					}
				}
			}
		}
		JOINT UpperLeg_L
		{
			OFFSET -2.19248 -6.46944 0.0
			CHANNELS 6 Xposition Yposition Zposition Zrotation Xrotation Yrotation 
			JOINT LowerLeg_L
			{
				OFFSET 39.0811 0.0 -1.23785e-05
				CHANNELS 6 Xposition Yposition Zposition Zrotation Xrotation Yrotation 
				JOINT Foot_L
				{
					OFFSET 40.9854 0.0 -1.26872e-05
					CHANNELS 6 Xposition Yposition Zposition Zrotation Xrotation Yrotation 
					JOINT Toes_L
					{
						OFFSET 11.7543 0.0 0.0
						CHANNELS 6 Xposition Yposition Zposition Zrotation Xrotation Yrotation 
						End Site
						{
							OFFSET 0.0 0.0 0.0
						}
					}
				}
			}
		}
		JOINT UpperLeg_R
		{
			OFFSET -2.19251 6.46944 0.0
			CHANNELS 6 Xposition Yposition Zposition Zrotation Xrotation Yrotation 
			JOINT LowerLeg_R
			{
				OFFSET -39.0811 -0.00228153 -0.0401928
				CHANNELS 6 Xposition Yposition Zposition Zrotation Xrotation Yrotation 
				JOINT Foot_R
				{
					OFFSET -40.9854 0.0 0.0
					CHANNELS 6 Xposition Yposition Zposition Zrotation Xrotation Yrotation 
					JOINT Toes_R
					{
						OFFSET -11.7543 0.0 0.0
						CHANNELS 6 Xposition Yposition Zposition Zrotation Xrotation Yrotation 
						End Site
						{
							OFFSET 0.0 0.0 0.0
						}
					}
				}
			}
		}
	}
}
MOTION
Frames:	7
Frame Time:	0.0333333
0.000000 0.000000 0.000000 0.000000 0.000000 -0.000000 -0.874993 92.302900 0.687272 87.936000 -0.378143 2.871680 15.735700 0.000005 -0.000001 88.367100 85.352700 -88.007300 8.984550 -0.406207 -0.000000 1.525770 -0.284307 0.722667 16.377300 -0.000001 -0.000001 4.524650 -3.088570 0.889233 6.456720 -0.000001 -0.000000 1.030180 -2.526370 0.023138 12.994200 -0.242716 4.980390 -89.951500 -0.155945 -72.707400 5.348090 -0.000007 -0.000001 -67.457000 40.491700 -14.147600 24.328600 0.000019 0.000005 0.313084 0.714048 -23.673500 22.291600 -0.000001 0.000005 5.527220 5.489380 -6.111660 12.994500 -0.242716 -4.980390 87.560500 7.325600 -71.524300 -5.348130 -0.000001 -0.000004 -65.483300 38.626600 -16.489700 -24.328900 0.000322 -0.000009 2.624300 7.960670 -18.318800 -22.291500 -0.000108 -0.000004 6.716420 5.323030 -0.582445 -2.192480 -6.469440 -0.000000 -175.443000 -5.259930 -2.472430 39.081100 -0.000007 -0.000012 -0.112831 0.278688 22.041500 40.985400 -0.000006 -0.000013 -0.557996 2.665550 -66.932000 11.754300 -0.000000 0.000003 -0.000055 -0.000619 -16.601600 -2.192510 6.469440 -0.000001 -179.718000 12.446000 179.811000 -39.081100 -0.002282 -0.040193 0.000639 0.007905 18.761100 -40.985400 0.000008 0.000006 4.386500 5.836930 -66.348400 -11.754300 -0.000006 -0.000006 -0.007960 -0.087708 -20.144600
0.000000 0.000000 0.000000 0.000000 0.000000 -0.000000 -0.849463 92.295000 0.674223 87.925900 -0.356790 2.996470 15.735700 0.000005 -0.000001 88.085400 85.325800 -87.747000 8.984550 -0.406207 -0.000000 1.578150 -0.330427 0.680637 16.377300 -0.000001 -0.000001 4.603580 -3.075660 0.800472 6.456720 -0.000001 -0.000000 0.976643 -2.505810 -0.023226 12.994200 -0.242716 4.980390 -89.940000 -0.192604 -72.685700 5.348090 -0.000007 -0.000001 -67.428800 40.567700 -14.261900 24.328600 0.000019 0.000005 0.288638 0.659611 -23.631000 22.291600 -0.000001 0.000005 5.493650 5.491380 -6.189860 12.994500 -0.242716 -4.980390 87.555800 7.317400 -71.471900 -5.348130 -0.000001 -0.000004 -64.928800 37.531400 -16.811100 -24.328900 0.000322 -0.000009 3.114890 8.618980 -19.962700 -22.291500 -0.000108 -0.000004 4.523010 5.288370 0.399296 -2.192480 -6.469440 -0.000000 -175.436000 -5.300140 -2.408150 39.081100 -0.000007 -0.000012 -0.115382 0.283728 22.129900 40.985400 -0.000006 -0.000013 -0.531159 2.687900 -66.960800 11.754300 -0.000000 0.000003 -0.000059 -0.000657 -16.603000 -2.192510 6.469440 -0.000001 -179.724000 12.390300 179.888000 -39.081100 -0.002282 -0.040193 0.004555 -0.003608 18.849700 -40.985400 0.000008 0.000006 4.482420 5.697840 -66.394400 -11.754300 -0.000006 -0.000006 -0.008132 -0.089109 -20.201800
0.000000 0.000000 0.000000 0.000000 0.000000 -0.000000 -0.816198 92.283200 0.654393 87.946700 -0.316754 3.125920 15.735700 0.000005 -0.000001 87.846300 85.303600 -87.537900 8.984550 -0.406207 -0.000000 1.621300 -0.369316 0.621508 16.377300 -0.000001 -0.000001 4.683850 -3.052860 0.680992 6.456720 -0.000001 -0.000000 0.999566 -2.396180 -0.165431 12.994200 -0.242716 4.980390 -89.933400 -0.214038 -72.712300 5.348090 -0.000007 -0.000001 -67.445000 40.529000 -14.305400 24.328600 0.000019 0.000005 0.334835 0.763355 -23.682000 22.291600 -0.000001 0.000005 5.447000 5.489890 -6.131370 12.994500 -0.242716 -4.980390 87.529100 7.328210 -71.309100 -5.348130 -0.000001 -0.000004 -64.325300 35.308200 -17.021300 -24.328900 0.000322 -0.000009 3.977300 9.178370 -23.557000 -22.291500 -0.000108 -0.000004 1.424720 5.228840 1.990210 -2.192480 -6.469440 -0.000000 -175.452000 -5.296570 -2.341280 39.081100 -0.000007 -0.000012 -0.117051 0.286570 22.217800 40.985400 -0.000006 -0.000013 -0.493778 2.777610 -66.990900 11.754300 -0.000000 0.000003 -0.000053 -0.000593 -16.600500 -2.192510 6.469440 -0.000001 -179.761000 12.313600 179.922000 -39.081100 -0.002282 -0.040193 0.006868 -0.010290 19.009100 -40.985400 0.000008 0.000006 4.558280 5.563130 -66.461800 -11.754300 -0.000006 -0.000006 -0.007949 -0.087617 -20.140900
0.000000 0.000000 0.000000 0.000000 0.000000 -0.000000 -0.775569 92.272100 0.642321 88.003800 -0.208642 3.315770 15.735700 0.000005 -0.000001 87.145200 85.282500 -86.889500 8.984550 -0.406207 -0.000000 1.658430 -0.483269 0.518097 16.377300 -0.000001 -0.000001 4.779020 -2.979480 0.500456 6.456720 -0.000001 -0.000000 1.076680 -2.183360 -0.243365 12.994200 -0.242716 4.980390 -89.929600 -0.225763 -72.686500 5.348090 -0.000007 -0.000001 -67.497900 40.422600 -14.277100 24.328600 0.000019 0.000005 0.334300 0.761511 -23.699300 22.291600 -0.000001 0.000005 5.416380 5.492030 -6.215690 12.994500 -0.242716 -4.980390 87.474800 7.385330 -71.063600 -5.348130 -0.000001 -0.000004 -63.119500 33.148200 -17.631300 -24.328900 0.000322 -0.000009 4.601900 8.474460 -28.648800 -22.291500 -0.000108 -0.000004 0.371546 5.204640 2.602570 -2.192480 -6.469440 -0.000000 -175.540000 -5.134640 -2.192190 39.081100 -0.000007 -0.000012 -0.116455 0.284416 22.266800 40.985400 -0.000006 -0.000013 -0.473120 2.709560 -67.011100 11.754300 -0.000000 0.000003 -0.000064 -0.000701 -16.604700 -2.192510 6.469440 -0.000001 -179.866000 12.321400 -179.956000 -39.081100 -0.002282 -0.040193 0.009225 -0.016987 19.158800 -40.985400 0.000008 0.000006 4.577720 5.442570 -66.537600 -11.754300 -0.000006 -0.000006 -0.007839 -0.086717 -20.104100
0.000000 0.000000 0.000000 0.000000 0.000000 -0.000000 -0.726665 92.254000 0.630291 88.027500 -0.177926 3.453350 15.735700 0.000005 -0.000001 86.624400 85.303300 -86.416100 8.984550 -0.406207 -0.000000 1.612240 -0.563984 0.424238 16.377300 -0.000001 -0.000001 4.924240 -2.872100 0.261946 6.456720 -0.000001 -0.000000 1.208180 -1.923390 -0.373345 12.994200 -0.242716 4.980390 -89.930700 -0.221652 -72.627100 5.348090 -0.000007 -0.000001 -67.461900 40.451900 -14.290400 24.328600 0.000019 0.000005 0.305745 0.697274 -23.674200 22.291600 -0.000001 0.000005 5.469820 5.490590 -6.158830 12.994500 -0.242716 -4.980390 87.444400 7.342270 -70.748400 -5.348130 -0.000001 -0.000004 -61.673800 30.687500 -18.815500 -24.328900 0.000322 -0.000009 5.598030 8.083330 -34.882800 -22.291500 -0.000108 -0.000004 1.489070 5.210620 2.451330 -2.192480 -6.469440 -0.000000 -175.608000 -5.073440 -2.136840 39.081100 -0.000007 -0.000012 -0.114370 0.277432 22.403700 40.985400 -0.000006 -0.000013 -0.436294 2.646460 -67.072000 11.754300 -0.000000 0.000003 -0.000055 -0.000618 -16.601500 -2.192510 6.469440 -0.000001 -179.939000 12.258200 -179.925000 -39.081100 -0.002282 -0.040193 0.009222 -0.016799 19.349600 -40.985400 0.000008 0.000006 4.542530 5.341150 -66.608300 -11.754300 -0.000006 -0.000006 -0.007900 -0.087215 -20.124400
0.000000 0.000000 0.000000 0.000000 0.000000 -0.000000 -0.684540 92.240800 0.634901 88.043500 -0.191862 3.676820 15.735700 0.000005 -0.000001 86.293700 85.325800 -86.141600 8.984550 -0.406207 -0.000000 1.563730 -0.612195 0.312234 16.377300 -0.000001 -0.000001 5.185310 -2.771770 0.117377 6.456720 -0.000001 -0.000000 1.368020 -1.654630 -0.718260 12.994200 -0.242716 4.980390 -89.930100 -0.222336 -72.553500 5.348090 -0.000007 -0.000001 -67.541400 40.275300 -14.185800 24.328600 0.000019 0.000005 0.380502 0.870173 -23.617100 22.291600 -0.000001 0.000005 5.389510 5.489040 -6.098040 12.994500 -0.242716 -4.980390 87.429000 7.255890 -70.428400 -5.348130 -0.000001 -0.000004 -60.245800 27.720100 -20.438500 -24.328900 0.000322 -0.000009 7.446220 8.259370 -42.298400 -22.291500 -0.000108 -0.000004 4.547170 5.201090 2.690420 -2.192480 -6.469440 -0.000000 -175.619000 -5.102660 -1.930220 39.081100 -0.000007 -0.000012 -0.115022 0.278057 22.473200 40.985400 -0.000006 -0.000013 -0.396838 2.706430 -67.125500 11.754300 -0.000000 0.000003 -0.000058 -0.000641 -16.602400 -2.192510 6.469440 -0.000001 179.971000 12.232300 -179.743000 -39.081100 -0.002282 -0.040193 0.010627 -0.020666 19.466200 -40.985400 0.000008 0.000006 4.562980 5.344440 -66.678500 -11.754300 -0.000006 -0.000006 -0.007730 -0.085817 -20.067400
0.000000 0.000000 0.000000 0.000000 0.000000 -0.000000 -0.663796 92.221500 0.616035 88.028300 -0.237189 3.805310 15.735700 0.000005 -0.000001 86.114300 85.390100 -85.995700 8.984550 -0.406207 -0.000000 1.433330 -0.631041 0.244844 16.377300 -0.000001 -0.000001 5.439790 -2.634140 -0.026885 6.456720 -0.000001 -0.000000 1.594240 -1.438520 -1.274280 12.994200 -0.242716 4.980390 -89.937200 -0.199270 -72.494300 5.348090 -0.000007 -0.000001 -67.627200 40.170600 -14.088800 24.328600 0.000019 0.000005 0.422668 0.972994 -23.479300 22.291600 -0.000001 0.000005 5.502050 5.489830 -6.129060 12.994500 -0.242716 -4.980390 87.491400 6.977190 -70.167800 -5.348130 -0.000001 -0.000004 -59.215900 24.000400 -22.599000 -24.328900 0.000322 -0.000009 10.093500 8.518690 -50.234700 -22.291500 -0.000108 -0.000004 7.358550 5.190140 2.964510 -2.192480 -6.469440 -0.000000 -175.605000 -5.167110 -1.892240 39.081100 -0.000007 -0.000012 -0.114840 0.275344 22.640000 40.985400 -0.000006 -0.000013 -0.377218 2.698910 -67.198400 11.754300 -0.000000 0.000003 -0.000057 -0.000635 -16.602200 -2.192510 6.469440 -0.000001 179.920000 12.224300 -179.691000 -39.081100 -0.002282 -0.040193 0.003845 -0.001470 19.590500 -40.985400 0.000008 0.000006 4.338290 5.403800 -66.692000 -11.754300 -0.000006 -0.000006 -0.007579 -0.084559 -20.016000
